<svg id="svg" version="1.1" xmlns="http://www.w3.org/2000/svg" xmlns:xlink="http://www.w3.org/1999/xlink" width="400" height="400" viewBox="0, 0, 400,400"><g id="svgg"><path id="path0" d="M180.600 25.191 C 178.840 25.365,176.868 25.718,176.218 25.975 C 175.548 26.240,174.378 26.331,173.519 26.186 C 172.378 25.994,171.946 26.076,171.776 26.520 C 171.618 26.929,170.916 27.116,169.475 27.133 C 168.334 27.147,166.410 27.356,165.200 27.599 C 163.990 27.842,162.325 28.140,161.500 28.262 C 160.675 28.384,160.000 28.645,160.000 28.842 C 160.000 29.039,159.280 29.200,158.400 29.200 C 157.520 29.200,156.800 29.380,156.800 29.600 C 156.800 29.820,156.080 30.000,155.200 30.000 C 154.320 30.000,153.600 30.180,153.600 30.400 C 153.600 30.620,153.060 30.800,152.400 30.800 C 151.740 30.800,151.200 30.980,151.200 31.200 C 151.200 31.420,150.581 31.600,149.824 31.600 C 149.067 31.600,148.336 31.780,148.200 32.000 C 148.064 32.220,147.524 32.400,147.000 32.400 C 146.476 32.400,145.936 32.580,145.800 32.800 C 145.664 33.020,145.113 33.200,144.576 33.200 C 144.039 33.200,143.600 33.380,143.600 33.600 C 143.600 33.820,143.060 34.000,142.400 34.000 C 141.740 34.000,141.200 34.180,141.200 34.400 C 141.200 34.620,140.851 34.800,140.424 34.800 C 139.997 34.800,139.536 34.980,139.400 35.200 C 139.264 35.420,138.713 35.600,138.176 35.600 C 137.639 35.600,137.200 35.780,137.200 36.000 C 137.200 36.220,136.840 36.400,136.400 36.400 C 135.960 36.400,135.600 36.580,135.600 36.800 C 135.600 37.020,135.060 37.200,134.400 37.200 C 133.740 37.200,133.200 37.380,133.200 37.600 C 133.200 37.820,132.840 38.000,132.400 38.000 C 131.960 38.000,131.600 38.180,131.600 38.400 C 131.600 38.620,131.150 38.800,130.600 38.800 C 130.050 38.800,129.600 38.980,129.600 39.200 C 129.600 39.420,129.234 39.600,128.787 39.600 C 128.341 39.600,127.872 39.869,127.746 40.198 C 127.619 40.526,127.372 40.706,127.196 40.598 C 126.847 40.382,123.483 42.012,123.266 42.502 C 123.192 42.669,122.937 42.685,122.700 42.538 C 122.462 42.391,121.842 42.795,121.321 43.435 C 120.800 44.076,120.490 44.282,120.632 43.894 C 120.829 43.357,120.141 43.584,117.745 44.848 C 116.015 45.760,114.540 46.663,114.467 46.854 C 114.393 47.044,113.988 47.200,113.567 47.200 C 113.145 47.200,112.800 47.380,112.800 47.600 C 112.800 47.820,112.564 48.000,112.275 48.000 C 111.987 48.000,111.402 48.324,110.975 48.720 C 110.549 49.116,109.874 49.565,109.475 49.717 C 109.076 49.870,108.860 50.174,108.995 50.393 C 109.139 50.624,108.977 50.689,108.609 50.548 C 108.231 50.403,107.680 50.646,107.241 51.153 C 106.837 51.619,106.252 52.000,105.941 52.000 C 105.631 52.000,105.117 52.360,104.800 52.800 C 104.483 53.240,103.943 53.600,103.600 53.600 C 103.257 53.600,102.717 53.960,102.400 54.400 C 102.083 54.840,101.575 55.200,101.272 55.200 C 100.969 55.200,100.217 55.740,99.600 56.400 C 98.983 57.060,98.191 57.600,97.840 57.600 C 97.488 57.600,97.200 57.741,97.200 57.914 C 97.200 58.086,96.615 58.566,95.900 58.979 C 94.614 59.723,92.728 61.240,89.984 63.737 C 89.206 64.446,87.946 65.466,87.184 66.005 C 85.412 67.259,67.600 85.086,67.600 85.605 C 67.600 85.820,66.700 86.915,65.600 88.039 C 64.500 89.162,63.600 90.240,63.600 90.434 C 63.600 90.628,63.156 91.284,62.613 91.893 C 60.454 94.315,58.836 96.457,58.597 97.209 C 58.459 97.644,58.178 98.000,57.973 98.000 C 57.768 98.000,57.600 98.243,57.600 98.541 C 57.600 98.838,57.060 99.646,56.400 100.337 C 55.740 101.028,55.200 101.798,55.200 102.049 C 55.200 102.301,54.819 102.837,54.353 103.241 C 53.863 103.665,53.604 104.235,53.740 104.588 C 53.885 104.966,53.750 105.200,53.387 105.200 C 53.064 105.200,52.800 105.436,52.800 105.725 C 52.800 106.013,52.485 106.598,52.100 107.025 C 51.715 107.451,51.145 108.295,50.832 108.900 C 50.520 109.505,50.115 110.000,49.932 110.000 C 49.750 110.000,49.600 110.270,49.600 110.600 C 49.600 110.930,49.420 111.200,49.200 111.200 C 48.980 111.200,48.800 111.560,48.800 112.000 C 48.800 112.440,48.620 112.800,48.400 112.800 C 48.180 112.800,48.000 113.078,48.000 113.417 C 48.000 113.756,47.640 114.420,47.200 114.892 C 46.760 115.364,46.400 115.987,46.400 116.275 C 46.400 116.564,46.220 116.800,46.000 116.800 C 45.780 116.800,45.600 117.160,45.600 117.600 C 45.600 118.040,45.420 118.400,45.200 118.400 C 44.980 118.400,44.800 118.760,44.800 119.200 C 44.800 119.640,44.620 120.000,44.400 120.000 C 44.180 120.000,44.000 120.360,44.000 120.800 C 44.000 121.240,43.801 121.600,43.557 121.600 C 43.314 121.600,43.213 121.857,43.333 122.171 C 43.454 122.485,43.285 122.964,42.958 123.235 C 42.631 123.506,42.452 123.958,42.559 124.238 C 42.667 124.519,42.630 124.805,42.478 124.874 C 42.325 124.943,41.775 125.900,41.256 127.000 C 40.737 128.100,40.152 129.313,39.956 129.695 C 39.760 130.077,39.600 130.662,39.600 130.995 C 39.600 131.328,39.420 131.600,39.200 131.600 C 38.980 131.600,38.800 131.960,38.800 132.400 C 38.800 132.840,38.620 133.200,38.400 133.200 C 38.180 133.200,38.000 133.639,38.000 134.176 C 38.000 134.713,37.820 135.264,37.600 135.400 C 37.380 135.536,37.200 135.997,37.200 136.424 C 37.200 136.851,37.020 137.200,36.800 137.200 C 36.580 137.200,36.400 137.740,36.400 138.400 C 36.400 139.060,36.220 139.600,36.000 139.600 C 35.780 139.600,35.600 139.960,35.600 140.400 C 35.600 140.840,35.420 141.200,35.200 141.200 C 34.980 141.200,34.800 141.740,34.800 142.400 C 34.800 143.060,34.620 143.600,34.400 143.600 C 34.180 143.600,34.000 144.039,34.000 144.576 C 34.000 145.113,33.820 145.664,33.600 145.800 C 33.380 145.936,33.200 146.476,33.200 147.000 C 33.200 147.524,33.020 148.064,32.800 148.200 C 32.580 148.336,32.400 148.876,32.400 149.400 C 32.400 149.924,32.220 150.464,32.000 150.600 C 31.780 150.736,31.600 151.467,31.600 152.224 C 31.600 152.981,31.420 153.600,31.200 153.600 C 30.980 153.600,30.800 154.320,30.800 155.200 C 30.800 156.080,30.620 156.800,30.400 156.800 C 30.180 156.800,30.000 157.329,30.000 157.976 C 30.000 158.623,29.820 159.264,29.600 159.400 C 29.380 159.536,29.200 160.357,29.200 161.224 C 29.200 162.091,29.020 162.800,28.800 162.800 C 28.580 162.800,28.400 163.484,28.400 164.320 C 28.400 165.156,28.237 166.011,28.039 166.220 C 27.637 166.642,27.226 169.544,27.135 172.591 C 27.103 173.685,26.829 174.828,26.527 175.130 C 26.169 175.488,26.063 176.127,26.221 176.970 C 26.367 177.750,26.174 179.198,25.731 180.630 C 24.635 184.181,24.610 225.533,25.702 228.519 C 26.160 229.772,26.319 230.963,26.162 231.950 C 25.994 232.998,26.096 233.639,26.493 234.036 C 26.868 234.410,27.028 235.264,26.956 236.495 C 26.894 237.532,27.014 238.485,27.222 238.614 C 27.430 238.742,27.600 239.647,27.600 240.624 C 27.600 241.601,27.780 242.400,28.000 242.400 C 28.220 242.400,28.400 243.199,28.400 244.176 C 28.400 245.153,28.580 246.064,28.800 246.200 C 29.020 246.336,29.200 247.157,29.200 248.024 C 29.200 248.891,29.380 249.600,29.600 249.600 C 29.820 249.600,30.000 250.219,30.000 250.976 C 30.000 251.733,30.180 252.464,30.400 252.600 C 30.620 252.736,30.800 253.366,30.800 254.000 C 30.800 254.634,30.980 255.264,31.200 255.400 C 31.420 255.536,31.600 256.177,31.600 256.824 C 31.600 257.471,31.780 258.000,32.000 258.000 C 32.220 258.000,32.400 258.540,32.400 259.200 C 32.400 259.860,32.580 260.400,32.800 260.400 C 33.020 260.400,33.200 260.940,33.200 261.600 C 33.200 262.260,33.380 262.800,33.600 262.800 C 33.820 262.800,34.000 263.340,34.000 264.000 C 34.000 264.660,34.180 265.200,34.400 265.200 C 34.620 265.200,34.800 265.740,34.800 266.400 C 34.800 267.060,34.980 267.600,35.200 267.600 C 35.420 267.600,35.600 268.039,35.600 268.576 C 35.600 269.113,35.780 269.664,36.000 269.800 C 36.220 269.936,36.400 270.397,36.400 270.824 C 36.400 271.251,36.580 271.600,36.800 271.600 C 37.020 271.600,37.200 272.050,37.200 272.600 C 37.200 273.150,37.380 273.600,37.600 273.600 C 37.820 273.600,38.000 273.960,38.000 274.400 C 38.000 274.840,38.180 275.200,38.400 275.200 C 38.620 275.200,38.800 275.740,38.800 276.400 C 38.800 277.060,38.980 277.600,39.200 277.600 C 39.420 277.600,39.600 277.960,39.600 278.400 C 39.600 278.840,39.780 279.200,40.000 279.200 C 40.220 279.200,40.400 279.560,40.400 280.000 C 40.400 280.440,40.580 280.800,40.800 280.800 C 41.020 280.800,41.200 281.034,41.200 281.320 C 41.200 282.080,42.146 283.993,42.524 283.997 C 42.702 283.999,42.731 284.188,42.589 284.418 C 42.447 284.647,42.569 285.122,42.860 285.472 C 43.150 285.822,43.410 286.309,43.436 286.554 C 43.533 287.440,44.099 288.800,44.372 288.800 C 44.525 288.800,44.898 289.430,45.200 290.200 C 45.502 290.970,45.896 291.600,46.075 291.600 C 46.254 291.600,46.400 291.960,46.400 292.400 C 46.400 292.840,46.580 293.200,46.800 293.200 C 47.020 293.200,47.200 293.560,47.200 294.000 C 47.200 294.440,47.380 294.800,47.600 294.800 C 47.820 294.800,48.000 295.036,48.000 295.325 C 48.000 295.613,48.360 296.236,48.800 296.708 C 49.240 297.180,49.600 297.844,49.600 298.183 C 49.600 298.522,49.780 298.800,50.000 298.800 C 50.220 298.800,50.400 299.120,50.400 299.512 C 50.400 299.903,50.760 300.483,51.200 300.800 C 51.640 301.117,52.000 301.657,52.000 302.000 C 52.000 302.343,52.360 302.883,52.800 303.200 C 53.240 303.517,53.600 304.097,53.600 304.488 C 53.600 304.880,53.738 305.200,53.906 305.200 C 54.074 305.200,54.656 305.920,55.200 306.800 C 55.744 307.680,56.326 308.400,56.494 308.400 C 56.662 308.400,56.800 308.593,56.800 308.829 C 56.800 309.421,57.849 310.418,58.152 310.114 C 58.289 309.978,58.400 310.336,58.400 310.911 C 58.400 311.500,58.747 312.198,59.197 312.513 C 59.636 312.820,59.876 313.191,59.731 313.336 C 59.586 313.481,59.677 313.600,59.933 313.600 C 60.190 313.600,60.400 313.843,60.400 314.141 C 60.400 314.438,60.940 315.246,61.600 315.937 C 62.260 316.628,62.800 317.353,62.800 317.548 C 62.800 317.744,63.520 318.645,64.400 319.552 C 65.280 320.459,66.000 321.329,66.000 321.485 C 66.000 321.641,67.260 322.990,68.800 324.481 C 70.340 325.973,71.600 327.367,71.600 327.579 C 71.600 328.048,81.049 337.571,83.725 339.800 C 84.782 340.680,86.260 341.985,87.010 342.700 C 87.760 343.415,88.573 344.000,88.818 344.000 C 89.063 344.000,89.954 344.720,90.800 345.600 C 91.646 346.480,92.651 347.200,93.035 347.200 C 93.419 347.200,93.618 347.315,93.477 347.456 C 93.173 347.760,95.964 350.400,96.590 350.400 C 96.828 350.400,97.283 350.760,97.600 351.200 C 97.917 351.640,98.409 352.000,98.692 352.000 C 98.975 352.000,99.772 352.540,100.463 353.200 C 101.154 353.860,101.879 354.400,102.076 354.400 C 102.273 354.400,102.820 354.760,103.292 355.200 C 103.764 355.640,104.387 356.000,104.675 356.000 C 104.964 356.000,105.200 356.151,105.200 356.336 C 105.200 356.804,107.180 357.660,107.625 357.384 C 107.826 357.260,107.906 357.393,107.803 357.679 C 107.690 357.994,108.284 358.508,109.308 358.979 C 110.239 359.408,111.349 360.083,111.775 360.479 C 112.202 360.876,112.787 361.200,113.075 361.200 C 113.364 361.200,113.600 361.380,113.600 361.600 C 113.600 361.820,113.960 362.000,114.400 362.000 C 114.840 362.000,115.200 362.180,115.200 362.400 C 115.200 362.620,115.545 362.800,115.967 362.800 C 116.388 362.800,116.793 362.935,116.867 363.100 C 117.034 363.476,119.164 364.775,120.100 365.071 C 120.485 365.193,120.800 365.452,120.800 365.647 C 120.800 365.841,121.160 366.000,121.600 366.000 C 122.040 366.000,122.400 366.180,122.400 366.400 C 122.400 366.620,122.760 366.800,123.200 366.800 C 123.640 366.800,124.000 366.980,124.000 367.200 C 124.000 367.420,124.349 367.600,124.776 367.600 C 125.203 367.600,125.664 367.780,125.800 368.000 C 125.936 368.220,126.397 368.400,126.824 368.400 C 127.251 368.400,127.600 368.580,127.600 368.800 C 127.600 369.020,127.960 369.200,128.400 369.200 C 128.840 369.200,129.200 369.380,129.200 369.600 C 129.200 369.820,129.560 370.000,130.000 370.000 C 130.440 370.000,130.800 370.180,130.800 370.400 C 130.800 370.620,131.149 370.800,131.576 370.800 C 132.003 370.800,132.464 370.980,132.600 371.200 C 132.736 371.420,133.287 371.600,133.824 371.600 C 134.361 371.600,134.800 371.780,134.800 372.000 C 134.800 372.220,135.149 372.400,135.576 372.400 C 136.003 372.400,136.464 372.580,136.600 372.800 C 136.736 373.020,137.287 373.200,137.824 373.200 C 138.361 373.200,138.800 373.380,138.800 373.600 C 138.800 373.820,139.239 374.000,139.776 374.000 C 140.313 374.000,140.872 374.192,141.017 374.427 C 141.162 374.662,141.527 374.760,141.828 374.645 C 142.128 374.529,142.481 374.607,142.611 374.817 C 142.926 375.328,151.260 375.309,152.612 374.796 C 154.069 374.241,156.328 371.838,156.647 370.501 C 156.792 369.895,157.067 369.199,157.260 368.954 C 157.452 368.708,157.562 360.968,157.504 351.754 L 157.400 335.000 155.500 334.878 C 154.357 334.805,153.600 334.924,153.600 335.178 C 153.600 335.422,152.683 335.600,151.424 335.600 C 150.227 335.600,149.136 335.780,149.000 336.000 C 148.864 336.221,147.070 336.400,145.000 336.400 C 142.930 336.400,141.136 336.579,141.000 336.800 C 140.677 337.322,136.400 337.322,136.400 336.800 C 136.400 336.563,134.933 336.400,132.800 336.400 C 130.667 336.400,129.200 336.237,129.200 336.000 C 129.200 335.780,128.480 335.600,127.600 335.600 C 126.720 335.600,126.000 335.420,126.000 335.200 C 126.000 334.980,125.370 334.800,124.600 334.800 C 123.830 334.800,123.200 334.620,123.200 334.400 C 123.200 334.180,122.660 334.000,122.000 334.000 C 121.340 334.000,120.800 333.820,120.800 333.600 C 120.800 333.380,120.440 333.200,120.000 333.200 C 119.560 333.200,119.200 333.020,119.200 332.800 C 119.200 332.580,118.840 332.400,118.400 332.400 C 117.960 332.400,117.600 332.220,117.600 332.000 C 117.600 331.780,117.240 331.600,116.800 331.600 C 116.360 331.600,116.000 331.420,116.000 331.200 C 116.000 330.980,115.640 330.800,115.200 330.800 C 114.760 330.800,114.400 330.632,114.400 330.427 C 114.400 330.222,114.034 329.938,113.587 329.796 C 113.140 329.654,112.338 329.102,111.805 328.569 C 111.272 328.036,110.676 327.600,110.480 327.600 C 110.283 327.600,109.464 326.960,108.659 326.178 C 107.825 325.369,106.997 324.878,106.735 325.040 C 106.454 325.214,106.385 325.147,106.558 324.868 C 106.717 324.611,106.222 323.796,105.420 322.993 C 104.639 322.212,104.000 321.408,104.000 321.205 C 104.000 321.002,103.550 320.386,103.000 319.836 C 102.450 319.286,102.000 318.558,102.000 318.218 C 102.000 317.878,101.853 317.600,101.674 317.600 C 101.265 317.600,99.600 314.519,99.600 313.762 C 99.600 313.453,99.420 313.200,99.200 313.200 C 98.980 313.200,98.800 312.851,98.800 312.424 C 98.800 311.997,98.620 311.536,98.400 311.400 C 98.180 311.264,98.000 310.803,98.000 310.376 C 98.000 309.949,97.820 309.600,97.600 309.600 C 97.380 309.600,97.200 309.251,97.200 308.824 C 97.200 308.397,97.020 307.936,96.800 307.800 C 96.580 307.664,96.400 307.203,96.400 306.776 C 96.400 306.349,96.220 306.000,96.000 306.000 C 95.780 306.000,95.600 305.640,95.600 305.200 C 95.600 304.760,95.420 304.400,95.200 304.400 C 94.980 304.400,94.800 304.040,94.800 303.600 C 94.800 303.160,94.620 302.800,94.400 302.800 C 94.180 302.800,94.000 302.440,94.000 302.000 C 94.000 301.560,93.820 301.200,93.600 301.200 C 93.380 301.200,93.200 300.930,93.200 300.600 C 93.200 300.270,93.020 300.000,92.800 300.000 C 92.580 300.000,92.400 299.730,92.400 299.400 C 92.400 299.070,92.220 298.800,92.000 298.800 C 91.780 298.800,91.600 298.537,91.600 298.215 C 91.600 297.419,88.695 293.218,88.309 293.456 C 88.139 293.561,88.000 293.402,88.000 293.102 C 88.000 292.225,85.293 289.495,84.754 289.829 C 84.454 290.014,84.382 289.953,84.560 289.665 C 84.858 289.182,83.136 287.200,82.418 287.200 C 82.188 287.200,82.000 287.020,82.000 286.800 C 82.000 286.580,81.770 286.400,81.488 286.400 C 81.207 286.400,80.717 286.040,80.400 285.600 C 80.083 285.160,79.585 284.800,79.294 284.800 C 79.002 284.800,78.328 284.364,77.795 283.831 C 77.262 283.298,76.505 282.750,76.113 282.614 C 75.141 282.275,72.400 278.776,72.400 277.873 C 72.400 277.085,72.925 276.488,74.310 275.700 C 75.383 275.090,83.200 275.002,83.200 275.600 C 83.200 275.820,83.740 276.000,84.400 276.000 C 85.060 276.000,85.600 276.180,85.600 276.400 C 85.600 276.620,86.140 276.800,86.800 276.800 C 87.460 276.800,88.000 276.980,88.000 277.200 C 88.000 277.420,88.360 277.600,88.800 277.600 C 89.240 277.600,89.600 277.780,89.600 278.000 C 89.600 278.220,89.960 278.400,90.400 278.400 C 90.840 278.400,91.200 278.580,91.200 278.800 C 91.200 279.020,91.430 279.200,91.712 279.200 C 91.993 279.200,92.483 279.560,92.800 280.000 C 93.117 280.440,93.607 280.800,93.888 280.800 C 94.170 280.800,94.400 280.980,94.400 281.200 C 94.400 281.420,94.604 281.600,94.853 281.600 C 95.102 281.600,95.633 281.977,96.032 282.437 C 96.455 282.924,96.959 283.149,97.241 282.975 C 97.547 282.785,97.620 282.845,97.439 283.138 C 97.269 283.411,98.137 284.564,99.577 285.977 C 100.910 287.285,102.000 288.501,102.000 288.678 C 102.001 288.855,102.406 289.480,102.900 290.066 C 103.395 290.653,104.115 291.510,104.500 291.971 C 104.885 292.432,105.200 293.037,105.200 293.316 C 105.200 293.595,105.560 294.083,106.000 294.400 C 106.440 294.717,106.800 295.257,106.800 295.600 C 106.800 295.943,107.160 296.483,107.600 296.800 C 108.040 297.117,108.400 297.652,108.400 297.988 C 108.400 298.488,109.640 300.099,111.895 302.529 C 112.989 303.708,116.943 307.200,117.184 307.200 C 117.346 307.200,117.893 307.560,118.400 308.000 C 118.907 308.440,119.655 308.800,120.061 308.800 C 120.468 308.800,120.800 308.980,120.800 309.200 C 120.800 309.420,121.160 309.600,121.600 309.600 C 122.040 309.600,122.400 309.780,122.400 310.000 C 122.400 310.220,122.839 310.400,123.376 310.400 C 123.913 310.400,124.464 310.580,124.600 310.800 C 124.736 311.020,125.197 311.200,125.624 311.200 C 126.051 311.200,126.400 311.380,126.400 311.600 C 126.400 311.820,127.109 312.000,127.976 312.000 C 128.843 312.000,129.667 312.184,129.806 312.409 C 130.127 312.929,143.896 312.892,144.218 312.371 C 144.344 312.167,145.247 312.000,146.224 312.000 C 147.201 312.000,148.000 311.820,148.000 311.600 C 148.000 311.380,148.540 311.200,149.200 311.200 C 149.860 311.200,150.400 311.020,150.400 310.800 C 150.400 310.580,151.120 310.400,152.000 310.400 C 152.880 310.400,153.600 310.220,153.600 310.000 C 153.600 309.780,153.960 309.600,154.400 309.600 C 154.840 309.600,155.200 309.420,155.200 309.200 C 155.200 308.980,155.648 308.800,156.195 308.800 C 157.482 308.800,158.205 307.131,158.594 303.264 C 158.752 301.689,159.043 300.400,159.241 300.400 C 159.438 300.400,159.600 299.860,159.600 299.200 C 159.600 298.540,159.758 298.000,159.950 298.000 C 160.143 298.000,160.300 297.512,160.300 296.917 C 160.300 296.321,160.503 295.766,160.750 295.683 C 160.998 295.601,161.200 295.358,161.200 295.143 C 161.200 294.928,160.975 294.867,160.700 295.007 C 160.425 295.147,160.605 294.903,161.100 294.466 C 161.595 294.029,162.000 293.386,162.000 293.036 C 162.000 292.686,162.180 292.400,162.400 292.400 C 162.620 292.400,162.800 292.130,162.800 291.800 C 162.800 291.470,162.980 291.200,163.200 291.200 C 163.420 291.200,163.600 290.930,163.600 290.600 C 163.600 290.270,163.780 290.000,164.000 290.000 C 164.220 290.000,164.400 289.818,164.400 289.596 C 164.400 289.374,164.940 288.628,165.600 287.937 C 166.260 287.246,166.800 286.478,166.800 286.229 C 166.800 285.980,167.160 285.517,167.600 285.200 C 169.621 283.743,168.239 282.400,164.720 282.400 C 163.173 282.400,162.000 282.227,162.000 282.000 C 162.000 281.778,160.933 281.600,159.600 281.600 C 158.267 281.600,157.200 281.422,157.200 281.200 C 157.200 280.980,156.401 280.800,155.424 280.800 C 154.447 280.800,153.536 280.620,153.400 280.400 C 153.264 280.180,152.454 280.000,151.600 280.000 C 150.746 280.000,149.936 279.820,149.800 279.600 C 149.664 279.380,148.843 279.200,147.976 279.200 C 147.109 279.200,146.400 279.020,146.400 278.800 C 146.400 278.580,145.860 278.400,145.200 278.400 C 144.540 278.400,144.000 278.240,144.000 278.044 C 144.000 277.848,143.415 277.598,142.700 277.488 C 140.778 277.194,139.750 276.908,138.818 276.409 C 138.359 276.164,137.807 276.072,137.592 276.205 C 137.376 276.338,137.200 276.273,137.200 276.061 C 137.200 275.848,136.300 275.443,135.200 275.161 C 134.100 274.879,133.200 274.503,133.200 274.324 C 133.200 274.146,132.840 274.000,132.400 274.000 C 131.960 274.000,131.600 273.820,131.600 273.600 C 131.600 273.380,131.240 273.200,130.800 273.200 C 130.360 273.200,130.000 273.020,130.000 272.800 C 130.000 272.580,129.640 272.400,129.200 272.400 C 128.760 272.400,128.400 272.220,128.400 272.000 C 128.400 271.780,128.166 271.600,127.880 271.600 C 127.144 271.600,125.207 270.659,125.203 270.300 C 125.201 270.135,124.930 270.000,124.600 270.000 C 124.270 270.000,124.000 269.820,124.000 269.600 C 124.000 269.380,123.730 269.200,123.400 269.200 C 123.070 269.200,122.800 269.020,122.800 268.800 C 122.800 268.580,122.530 268.400,122.200 268.400 C 121.870 268.400,121.600 268.220,121.600 268.000 C 121.600 267.780,121.306 267.600,120.947 267.600 C 120.588 267.600,120.003 267.284,119.647 266.897 C 119.291 266.511,118.505 265.940,117.900 265.630 C 117.295 265.319,116.800 264.915,116.800 264.732 C 116.800 264.550,116.609 264.400,116.376 264.400 C 116.143 264.400,116.081 264.608,116.238 264.862 C 116.416 265.150,116.348 265.215,116.055 265.034 C 115.798 264.875,115.696 264.568,115.830 264.351 C 116.072 263.959,114.572 262.400,113.952 262.400 C 113.773 262.400,113.009 261.782,112.253 261.027 C 111.498 260.271,110.772 259.761,110.640 259.893 C 110.508 260.025,110.400 259.845,110.400 259.494 C 110.400 259.142,110.067 258.748,109.661 258.619 C 109.254 258.490,108.715 257.931,108.462 257.377 C 107.981 256.321,107.582 255.784,106.100 254.199 C 105.605 253.670,105.200 253.075,105.200 252.878 C 105.200 252.680,104.660 251.954,104.000 251.263 C 103.340 250.572,102.800 249.818,102.800 249.587 C 102.800 249.356,102.440 248.780,102.000 248.308 C 101.560 247.836,101.200 247.213,101.200 246.925 C 101.200 246.636,101.020 246.400,100.800 246.400 C 100.580 246.400,100.400 246.040,100.400 245.600 C 100.400 245.160,100.254 244.800,100.075 244.800 C 99.896 244.800,99.502 244.170,99.200 243.400 C 98.898 242.630,98.504 242.000,98.325 242.000 C 98.146 242.000,98.000 241.640,98.000 241.200 C 98.000 240.760,97.820 240.400,97.600 240.400 C 97.380 240.400,97.200 240.040,97.200 239.600 C 97.200 239.160,97.020 238.800,96.800 238.800 C 96.580 238.800,96.400 238.361,96.400 237.824 C 96.400 237.287,96.220 236.736,96.000 236.600 C 95.780 236.464,95.600 236.003,95.600 235.576 C 95.600 235.149,95.346 234.800,95.035 234.800 C 94.632 234.800,94.524 234.456,94.659 233.600 C 94.769 232.902,94.671 232.400,94.424 232.400 C 94.191 232.400,94.000 231.860,94.000 231.200 C 94.000 230.540,93.820 230.000,93.600 230.000 C 93.380 230.000,93.200 229.370,93.200 228.600 C 93.200 227.830,93.020 227.200,92.800 227.200 C 92.580 227.200,92.400 226.461,92.400 225.557 C 92.400 224.346,92.259 223.969,91.862 224.121 C 91.491 224.263,91.373 224.061,91.480 223.463 C 91.566 222.989,91.438 221.160,91.197 219.400 C 90.955 217.640,90.578 214.850,90.359 213.200 C 89.326 205.436,89.327 188.321,90.361 182.200 C 91.362 176.267,91.821 174.042,92.100 173.765 C 92.265 173.601,92.400 173.047,92.400 172.533 C 92.400 172.020,92.580 171.600,92.800 171.600 C 93.020 171.600,93.200 171.319,93.200 170.976 C 93.200 170.633,93.007 170.472,92.770 170.618 C 92.534 170.764,92.578 170.505,92.867 170.042 C 93.156 169.579,93.529 169.200,93.696 169.200 C 93.863 169.200,94.000 168.840,94.000 168.400 C 94.000 167.960,94.180 167.600,94.400 167.600 C 94.620 167.600,94.800 167.161,94.800 166.624 C 94.800 166.087,94.980 165.536,95.200 165.400 C 95.420 165.264,95.600 164.803,95.600 164.376 C 95.600 163.949,95.780 163.600,96.000 163.600 C 96.220 163.600,96.400 163.240,96.400 162.800 C 96.400 162.360,96.580 162.000,96.800 162.000 C 97.020 162.000,97.200 161.680,97.200 161.288 C 97.200 160.897,97.560 160.317,98.000 160.000 C 98.440 159.683,98.800 159.103,98.800 158.712 C 98.800 158.320,98.980 158.000,99.200 158.000 C 99.420 158.000,99.600 157.730,99.600 157.400 C 99.600 157.070,99.750 156.800,99.932 156.800 C 100.115 156.800,100.519 156.305,100.830 155.700 C 101.140 155.095,101.711 154.309,102.097 153.953 C 102.484 153.597,102.800 153.084,102.800 152.814 C 102.800 152.543,103.300 151.844,103.911 151.260 C 106.658 148.638,107.518 146.210,106.449 144.095 C 105.778 142.765,105.200 140.535,105.200 139.272 C 105.200 138.572,105.035 138.000,104.834 138.000 C 104.047 138.000,103.228 120.212,103.980 119.460 C 104.211 119.229,104.400 118.007,104.400 116.744 C 104.400 115.481,104.580 114.336,104.800 114.200 C 105.020 114.064,105.200 113.153,105.200 112.176 C 105.200 111.199,105.380 110.400,105.600 110.400 C 105.820 110.400,106.000 109.781,106.000 109.024 C 106.000 108.267,106.180 107.536,106.400 107.400 C 106.620 107.264,106.800 106.634,106.800 106.000 C 106.800 105.366,106.944 104.758,107.121 104.649 C 107.297 104.540,107.690 103.539,107.993 102.425 C 108.296 101.311,108.767 100.400,109.039 100.400 C 109.311 100.400,109.593 100.220,109.667 100.000 C 109.853 99.441,114.355 99.395,114.907 99.947 C 115.156 100.196,116.303 100.400,117.456 100.400 C 118.609 100.400,119.664 100.580,119.800 100.800 C 119.936 101.020,120.577 101.200,121.224 101.200 C 121.871 101.200,122.400 101.380,122.400 101.600 C 122.400 101.820,123.019 102.000,123.776 102.000 C 124.533 102.000,125.264 102.180,125.400 102.400 C 125.536 102.620,125.997 102.800,126.424 102.800 C 126.851 102.800,127.200 102.980,127.200 103.200 C 127.200 103.420,127.526 103.600,127.925 103.600 C 128.324 103.600,129.395 103.960,130.306 104.400 C 131.216 104.840,132.240 105.200,132.581 105.200 C 132.921 105.200,133.200 105.380,133.200 105.600 C 133.200 105.820,133.560 106.000,134.000 106.000 C 134.440 106.000,134.800 106.180,134.800 106.400 C 134.800 106.620,135.039 106.800,135.332 106.800 C 135.625 106.800,136.750 107.249,137.832 107.798 C 138.914 108.347,140.295 108.797,140.900 108.798 C 141.695 108.800,142.000 109.001,142.000 109.525 C 142.000 109.983,142.517 110.453,143.400 110.800 C 144.170 111.102,144.800 111.496,144.800 111.675 C 144.800 111.854,145.036 112.000,145.325 112.000 C 145.613 112.000,146.236 112.360,146.708 112.800 C 147.180 113.240,147.844 113.600,148.183 113.600 C 148.522 113.600,148.800 113.750,148.800 113.932 C 148.800 114.115,149.295 114.520,149.900 114.832 C 150.505 115.145,151.349 115.715,151.775 116.100 C 152.202 116.485,152.704 116.800,152.892 116.800 C 153.080 116.800,153.620 117.160,154.092 117.600 C 155.009 118.454,158.800 118.777,158.800 118.000 C 158.800 117.780,159.329 117.600,159.976 117.600 C 160.623 117.600,161.264 117.420,161.400 117.200 C 161.536 116.980,162.432 116.800,163.390 116.800 C 164.403 116.800,165.201 116.596,165.296 116.313 C 165.392 116.025,166.046 115.866,166.899 115.924 C 167.691 115.977,168.454 115.836,168.594 115.611 C 168.733 115.385,169.737 115.200,170.824 115.200 C 171.911 115.200,172.800 115.020,172.800 114.800 C 172.800 114.578,173.867 114.400,175.200 114.400 C 176.533 114.400,177.600 114.222,177.600 114.000 C 177.600 113.763,179.056 113.600,181.167 113.600 C 183.162 113.600,184.792 113.426,184.867 113.204 C 185.054 112.648,214.389 112.629,214.945 113.185 C 215.173 113.413,216.753 113.600,218.456 113.600 C 220.159 113.600,221.664 113.780,221.800 114.000 C 221.936 114.220,223.106 114.400,224.400 114.400 C 225.694 114.400,226.864 114.580,227.000 114.800 C 227.136 115.020,228.036 115.200,229.000 115.200 C 229.964 115.200,230.864 115.380,231.000 115.600 C 231.136 115.820,232.047 116.000,233.024 116.000 C 234.001 116.000,234.800 116.180,234.800 116.400 C 234.800 116.620,235.509 116.800,236.376 116.800 C 237.243 116.800,238.064 116.980,238.200 117.200 C 238.336 117.420,239.067 117.600,239.824 117.600 C 240.581 117.600,241.200 117.780,241.200 118.000 C 241.200 118.220,242.010 118.400,243.000 118.400 C 244.316 118.400,244.800 118.242,244.800 117.813 C 244.800 117.450,245.034 117.315,245.412 117.460 C 245.765 117.596,246.335 117.337,246.759 116.847 C 247.163 116.381,247.748 116.000,248.059 116.000 C 248.369 116.000,248.883 115.640,249.200 115.200 C 249.517 114.760,250.097 114.400,250.488 114.400 C 250.880 114.400,251.200 114.220,251.200 114.000 C 251.200 113.780,251.436 113.600,251.725 113.600 C 252.013 113.600,252.636 113.240,253.108 112.800 C 253.580 112.360,254.244 112.000,254.583 112.000 C 254.922 112.000,255.200 111.820,255.200 111.600 C 255.200 111.380,255.470 111.200,255.800 111.200 C 256.130 111.200,256.400 111.020,256.400 110.800 C 256.400 110.580,256.670 110.400,257.000 110.400 C 257.330 110.400,257.600 110.220,257.600 110.000 C 257.600 109.780,257.870 109.600,258.200 109.600 C 258.530 109.600,258.800 109.420,258.800 109.200 C 258.800 108.980,259.115 108.799,259.500 108.799 C 259.885 108.798,261.450 108.168,262.977 107.399 C 264.504 106.629,265.989 106.000,266.277 106.000 C 266.565 106.000,266.800 105.820,266.800 105.600 C 266.800 105.380,267.160 105.200,267.600 105.200 C 268.040 105.200,268.400 105.020,268.400 104.800 C 268.400 104.580,268.839 104.400,269.376 104.400 C 269.913 104.400,270.464 104.220,270.600 104.000 C 270.736 103.780,271.197 103.600,271.624 103.600 C 272.051 103.600,272.400 103.420,272.400 103.200 C 272.400 102.980,272.839 102.800,273.376 102.800 C 273.913 102.800,274.464 102.620,274.600 102.400 C 274.736 102.180,275.276 102.000,275.800 102.000 C 276.324 102.000,276.864 101.820,277.000 101.600 C 277.136 101.380,277.867 101.200,278.624 101.200 C 279.381 101.200,280.000 101.020,280.000 100.800 C 280.000 100.578,281.067 100.400,282.400 100.400 C 283.733 100.400,284.800 100.222,284.800 100.000 C 284.800 99.774,285.951 99.600,287.453 99.600 C 290.364 99.600,291.998 100.715,292.000 102.700 C 292.000 103.195,292.191 103.600,292.424 103.600 C 292.657 103.600,292.739 103.775,292.607 103.988 C 292.475 104.202,292.643 104.910,292.981 105.563 C 293.318 106.215,293.493 107.013,293.370 107.334 C 293.246 107.656,293.338 108.038,293.573 108.183 C 293.808 108.328,294.000 109.067,294.000 109.824 C 294.000 110.581,294.163 111.200,294.363 111.200 C 294.734 111.200,295.060 113.489,295.443 118.800 C 295.563 120.450,295.827 121.971,296.030 122.180 C 296.531 122.695,296.504 130.288,296.000 130.600 C 295.780 130.736,295.600 132.176,295.600 133.800 C 295.600 135.424,295.420 136.864,295.200 137.000 C 294.980 137.136,294.800 137.809,294.800 138.495 C 294.800 139.750,294.215 141.985,293.537 143.316 C 293.337 143.710,293.287 144.217,293.426 144.441 C 293.565 144.666,293.375 145.186,293.003 145.597 C 292.128 146.564,292.479 147.653,294.233 149.407 C 294.985 150.158,295.600 150.933,295.600 151.127 C 295.600 151.322,296.095 152.006,296.700 152.648 C 297.305 153.289,298.055 154.306,298.368 154.907 C 298.680 155.508,299.085 156.000,299.268 156.000 C 299.450 156.000,299.600 156.270,299.600 156.600 C 299.600 156.930,299.780 157.200,300.000 157.200 C 300.220 157.200,300.400 157.470,300.400 157.800 C 300.400 158.130,300.580 158.400,300.800 158.400 C 301.020 158.400,301.200 158.670,301.200 159.000 C 301.200 159.330,301.380 159.600,301.600 159.600 C 301.820 159.600,302.000 159.960,302.000 160.400 C 302.000 160.840,302.180 161.200,302.400 161.200 C 302.620 161.200,302.800 161.560,302.800 162.000 C 302.800 162.440,302.980 162.800,303.200 162.800 C 303.420 162.800,303.600 163.160,303.600 163.600 C 303.600 164.040,303.780 164.400,304.000 164.400 C 304.220 164.400,304.400 164.760,304.400 165.200 C 304.400 165.640,304.580 166.000,304.800 166.000 C 305.020 166.000,305.200 166.376,305.200 166.836 C 305.200 167.296,305.605 168.029,306.100 168.466 C 306.595 168.903,306.775 169.147,306.500 169.007 C 306.205 168.857,306.000 169.009,306.000 169.376 C 306.000 169.719,306.180 170.000,306.400 170.000 C 306.620 170.000,306.800 170.540,306.800 171.200 C 306.800 171.860,306.980 172.400,307.200 172.400 C 307.420 172.400,307.600 172.839,307.600 173.376 C 307.600 173.913,307.780 174.464,308.000 174.600 C 308.220 174.736,308.400 175.467,308.400 176.224 C 308.400 176.981,308.583 177.600,308.808 177.600 C 309.046 177.600,309.108 178.028,308.957 178.631 C 308.814 179.198,308.885 180.053,309.115 180.531 C 309.744 181.842,310.365 184.826,309.957 184.573 C 309.459 184.265,309.508 185.748,310.013 186.253 C 310.812 187.052,310.120 212.272,309.226 214.943 C 308.942 215.792,308.808 217.097,308.930 217.843 C 309.051 218.589,308.981 219.200,308.775 219.200 C 308.569 219.200,308.400 220.100,308.400 221.200 C 308.400 222.300,308.220 223.200,308.000 223.200 C 307.780 223.200,307.600 223.920,307.600 224.800 C 307.600 225.680,307.420 226.400,307.200 226.400 C 306.980 226.400,306.800 227.030,306.800 227.800 C 306.800 228.570,306.620 229.200,306.400 229.200 C 306.180 229.200,306.000 229.740,306.000 230.400 C 306.000 231.060,305.820 231.600,305.600 231.600 C 305.380 231.600,305.200 232.140,305.200 232.800 C 305.200 233.460,304.999 234.000,304.753 234.000 C 304.489 234.000,304.387 234.421,304.504 235.032 C 304.629 235.687,304.500 236.140,304.151 236.274 C 303.848 236.391,303.600 236.826,303.600 237.243 C 303.600 237.659,303.400 238.000,303.157 238.000 C 302.885 238.000,302.809 238.383,302.962 238.989 C 303.156 239.765,303.079 239.929,302.605 239.747 C 302.145 239.570,302.000 239.812,302.000 240.757 C 302.000 241.441,301.820 242.000,301.600 242.000 C 301.380 242.000,301.200 242.270,301.200 242.600 C 301.200 242.930,301.020 243.200,300.800 243.200 C 300.580 243.200,300.400 243.478,300.400 243.817 C 300.400 244.156,300.040 244.820,299.600 245.292 C 299.160 245.764,298.800 246.387,298.800 246.675 C 298.800 246.964,298.620 247.200,298.400 247.200 C 298.180 247.200,298.000 247.520,298.000 247.912 C 298.000 248.303,297.640 248.883,297.200 249.200 C 296.760 249.517,296.400 250.009,296.400 250.292 C 296.400 250.575,295.860 251.372,295.200 252.063 C 294.540 252.754,294.000 253.562,294.000 253.859 C 294.000 254.157,293.809 254.400,293.576 254.400 C 293.343 254.400,293.264 254.580,293.400 254.800 C 293.536 255.020,293.367 255.200,293.024 255.200 C 292.681 255.200,292.400 255.376,292.400 255.591 C 292.400 256.177,283.853 264.400,283.244 264.400 C 283.065 264.400,282.394 264.895,281.752 265.500 C 281.111 266.105,280.094 266.855,279.493 267.168 C 278.892 267.480,278.400 267.885,278.400 268.068 C 278.400 268.250,278.040 268.400,277.600 268.400 C 277.160 268.400,276.800 268.580,276.800 268.800 C 276.800 269.020,276.570 269.200,276.288 269.200 C 276.007 269.200,275.517 269.560,275.200 270.000 C 274.883 270.440,274.303 270.800,273.912 270.800 C 273.520 270.800,273.200 270.980,273.200 271.200 C 273.200 271.420,272.840 271.600,272.400 271.600 C 271.960 271.600,271.600 271.780,271.600 272.000 C 271.600 272.220,271.240 272.400,270.800 272.400 C 270.360 272.400,270.000 272.580,270.000 272.800 C 270.000 273.020,269.640 273.200,269.200 273.200 C 268.760 273.200,268.400 273.380,268.400 273.600 C 268.400 273.820,268.040 274.000,267.600 274.000 C 267.160 274.000,266.800 274.180,266.800 274.400 C 266.800 274.620,266.377 274.800,265.860 274.800 C 264.568 274.800,262.400 275.593,262.400 276.066 C 262.400 276.279,262.053 276.344,261.630 276.209 C 261.191 276.070,260.717 276.188,260.530 276.482 C 260.348 276.767,259.750 277.042,259.200 277.093 C 256.896 277.307,255.200 277.711,255.200 278.044 C 255.200 278.240,254.660 278.400,254.000 278.400 C 253.340 278.400,252.800 278.580,252.800 278.800 C 252.800 279.020,252.001 279.200,251.024 279.200 C 250.047 279.200,249.136 279.380,249.000 279.600 C 248.864 279.820,248.144 280.000,247.400 280.000 C 246.656 280.000,245.936 280.180,245.800 280.400 C 245.664 280.620,244.699 280.800,243.656 280.800 C 242.613 280.800,241.545 281.015,241.283 281.277 C 241.005 281.555,239.951 281.708,238.747 281.644 C 237.432 281.574,236.577 281.714,236.380 282.032 C 236.177 282.361,235.187 282.500,233.437 282.443 C 229.966 282.331,229.758 283.425,232.700 286.326 C 233.745 287.357,234.855 288.695,235.168 289.300 C 235.480 289.905,235.885 290.400,236.068 290.400 C 236.250 290.400,236.400 290.670,236.400 291.000 C 236.400 291.330,236.580 291.600,236.800 291.600 C 237.020 291.600,237.200 291.960,237.200 292.400 C 237.200 292.840,237.380 293.200,237.600 293.200 C 237.820 293.200,238.000 293.560,238.000 294.000 C 238.000 294.440,238.180 294.800,238.400 294.800 C 238.620 294.800,238.800 295.160,238.800 295.600 C 238.800 296.040,238.980 296.400,239.200 296.400 C 239.420 296.400,239.600 296.940,239.600 297.600 C 239.600 298.260,239.780 298.800,240.000 298.800 C 240.220 298.800,240.400 299.340,240.400 300.000 C 240.400 300.660,240.557 301.200,240.749 301.200 C 241.077 301.200,241.289 302.401,241.863 307.500 C 241.993 308.655,242.214 309.600,242.354 309.600 C 242.494 309.600,242.607 315.006,242.605 321.614 C 242.601 331.424,242.702 333.692,243.154 333.971 C 243.592 334.242,243.617 334.575,243.273 335.562 C 242.656 337.331,242.551 369.717,243.161 369.920 C 243.405 370.002,243.508 370.226,243.389 370.419 C 242.966 371.102,245.026 373.571,246.727 374.420 C 248.645 375.378,257.268 375.480,258.439 374.558 C 258.747 374.315,259.855 373.871,260.900 373.571 C 261.945 373.271,262.800 372.885,262.800 372.713 C 262.800 372.541,263.239 372.400,263.776 372.400 C 264.313 372.400,264.864 372.220,265.000 372.000 C 265.136 371.780,265.597 371.600,266.024 371.600 C 266.451 371.600,266.800 371.433,266.800 371.228 C 266.800 371.023,267.205 370.794,267.700 370.718 C 268.195 370.643,268.557 370.367,268.505 370.105 C 268.449 369.827,268.666 369.727,269.024 369.865 C 269.615 370.091,274.860 367.720,275.133 367.102 C 275.207 366.936,275.612 366.800,276.033 366.800 C 276.455 366.800,276.800 366.620,276.800 366.400 C 276.800 366.180,277.141 366.000,277.557 366.000 C 277.974 366.000,278.417 365.733,278.542 365.407 C 278.672 365.069,279.035 364.915,279.385 365.050 C 279.723 365.179,280.000 365.086,280.000 364.843 C 280.000 364.599,280.360 364.400,280.800 364.400 C 281.240 364.400,281.600 364.220,281.600 364.000 C 281.600 363.780,281.960 363.600,282.400 363.600 C 282.840 363.600,283.200 363.420,283.200 363.200 C 283.200 362.980,283.560 362.800,284.000 362.800 C 284.440 362.800,284.800 362.620,284.800 362.400 C 284.800 362.180,285.070 362.000,285.400 362.000 C 285.730 362.000,286.000 361.820,286.000 361.600 C 286.000 361.380,286.270 361.200,286.600 361.200 C 286.930 361.200,287.200 361.020,287.200 360.800 C 287.200 360.580,287.560 360.400,288.000 360.400 C 288.440 360.400,288.800 360.220,288.800 360.000 C 288.800 359.780,289.070 359.600,289.400 359.600 C 289.730 359.600,290.000 359.440,290.000 359.243 C 290.000 359.047,290.409 358.784,290.908 358.659 C 291.407 358.534,292.210 358.064,292.691 357.615 C 293.173 357.167,293.804 356.800,294.095 356.800 C 294.386 356.800,294.883 356.440,295.200 356.000 C 295.517 355.560,296.097 355.200,296.488 355.200 C 296.880 355.200,297.200 355.050,297.200 354.868 C 297.200 354.685,297.695 354.281,298.300 353.970 C 298.905 353.660,299.691 353.089,300.047 352.703 C 300.403 352.316,300.871 352.000,301.088 352.000 C 301.304 352.000,302.046 351.460,302.737 350.800 C 303.428 350.140,304.148 349.600,304.337 349.600 C 304.526 349.600,305.246 349.060,305.937 348.400 C 306.628 347.740,307.283 347.200,307.394 347.200 C 307.505 347.200,308.515 346.300,309.639 345.200 C 310.762 344.100,311.851 343.200,312.059 343.200 C 312.266 343.200,312.871 342.795,313.403 342.300 C 313.935 341.805,315.395 340.500,316.648 339.400 C 321.178 335.423,323.679 332.851,323.421 332.434 C 323.255 332.165,323.412 332.106,323.849 332.274 C 324.384 332.479,324.479 332.384,324.274 331.849 C 324.115 331.435,324.169 331.257,324.408 331.405 C 324.866 331.688,325.426 331.173,326.805 329.200 C 327.344 328.430,329.003 326.618,330.492 325.174 C 331.981 323.729,333.200 322.406,333.200 322.234 C 333.200 322.062,333.702 321.444,334.315 320.860 C 334.929 320.277,335.870 319.170,336.407 318.400 C 336.943 317.630,337.792 316.587,338.291 316.082 C 338.791 315.577,339.200 315.016,339.200 314.836 C 339.200 314.656,339.737 313.899,340.394 313.154 C 341.050 312.409,341.590 311.525,341.594 311.188 C 341.597 310.852,341.960 310.317,342.400 310.000 C 342.840 309.683,343.200 309.193,343.200 308.912 C 343.200 308.630,343.350 308.400,343.532 308.400 C 343.715 308.400,344.119 307.905,344.430 307.300 C 344.740 306.695,345.311 305.909,345.697 305.553 C 346.084 305.197,346.400 304.652,346.400 304.341 C 346.400 304.031,346.760 303.517,347.200 303.200 C 347.640 302.883,348.000 302.386,348.000 302.095 C 348.000 301.804,348.360 301.180,348.800 300.708 C 349.240 300.236,349.600 299.613,349.600 299.325 C 349.600 299.036,349.780 298.800,350.000 298.800 C 350.220 298.800,350.400 298.440,350.400 298.000 C 350.400 297.560,350.558 297.200,350.751 297.200 C 350.945 297.200,351.327 296.660,351.600 296.000 C 351.873 295.340,352.255 294.800,352.449 294.800 C 352.642 294.800,352.800 294.440,352.800 294.000 C 352.800 293.560,353.001 293.200,353.247 293.200 C 353.503 293.200,353.615 292.789,353.509 292.237 C 353.395 291.641,353.492 291.337,353.763 291.441 C 354.004 291.533,354.456 291.022,354.768 290.305 C 355.080 289.587,355.440 288.910,355.568 288.800 C 356.040 288.394,356.800 286.792,356.800 286.205 C 356.800 285.872,356.980 285.600,357.200 285.600 C 357.420 285.600,357.600 285.240,357.600 284.800 C 357.600 284.360,357.764 284.000,357.965 284.000 C 358.166 284.000,358.451 283.280,358.600 282.400 C 358.749 281.520,359.034 280.800,359.235 280.800 C 359.436 280.800,359.600 280.440,359.600 280.000 C 359.600 279.560,359.780 279.200,360.000 279.200 C 360.220 279.200,360.400 278.840,360.400 278.400 C 360.400 277.960,360.580 277.600,360.800 277.600 C 361.020 277.600,361.200 277.060,361.200 276.400 C 361.200 275.740,361.380 275.200,361.600 275.200 C 361.820 275.200,362.000 274.840,362.000 274.400 C 362.000 273.960,362.180 273.600,362.400 273.600 C 362.620 273.600,362.800 273.150,362.800 272.600 C 362.800 272.050,362.980 271.600,363.200 271.600 C 363.420 271.600,363.600 271.251,363.600 270.824 C 363.600 270.397,363.797 269.925,364.038 269.777 C 364.278 269.628,364.393 269.077,364.293 268.553 C 364.173 267.926,364.297 267.600,364.655 267.600 C 364.994 267.600,365.200 267.146,365.200 266.400 C 365.200 265.740,365.380 265.200,365.600 265.200 C 365.820 265.200,366.000 264.660,366.000 264.000 C 366.000 263.340,366.180 262.800,366.400 262.800 C 366.620 262.800,366.800 262.260,366.800 261.600 C 366.800 260.940,366.980 260.400,367.200 260.400 C 367.420 260.400,367.600 259.860,367.600 259.200 C 367.600 258.540,367.780 258.000,368.000 258.000 C 368.220 258.000,368.400 257.471,368.400 256.824 C 368.400 256.177,368.580 255.536,368.800 255.400 C 369.020 255.264,369.200 254.634,369.200 254.000 C 369.200 253.366,369.380 252.736,369.600 252.600 C 369.820 252.464,370.000 251.733,370.000 250.976 C 370.000 250.219,370.180 249.600,370.400 249.600 C 370.620 249.600,370.800 248.891,370.800 248.024 C 370.800 247.157,370.980 246.336,371.200 246.200 C 371.420 246.064,371.600 245.153,371.600 244.176 C 371.600 243.199,371.780 242.400,372.000 242.400 C 372.220 242.400,372.400 241.626,372.400 240.680 C 372.400 239.734,372.563 238.789,372.763 238.580 C 373.124 238.202,373.423 236.176,373.850 231.200 C 373.973 229.770,374.219 228.420,374.396 228.200 C 375.046 227.393,375.310 189.096,374.704 183.600 C 374.359 180.475,373.782 176.335,373.199 172.800 C 372.963 171.370,372.670 169.390,372.546 168.400 C 372.423 167.410,372.160 166.429,371.961 166.220 C 371.763 166.011,371.600 165.257,371.600 164.544 C 371.600 163.831,371.420 163.136,371.200 163.000 C 370.980 162.864,370.800 162.054,370.800 161.200 C 370.800 160.346,370.620 159.536,370.400 159.400 C 370.180 159.264,370.000 158.623,370.000 157.976 C 370.000 157.329,369.820 156.800,369.600 156.800 C 369.380 156.800,369.200 156.080,369.200 155.200 C 369.200 154.320,369.020 153.600,368.800 153.600 C 368.580 153.600,368.400 152.981,368.400 152.224 C 368.400 151.467,368.220 150.736,368.000 150.600 C 367.780 150.464,367.600 149.924,367.600 149.400 C 367.600 148.876,367.420 148.336,367.200 148.200 C 366.980 148.064,366.800 147.508,366.800 146.964 C 366.800 146.420,366.557 145.882,366.259 145.767 C 365.929 145.641,365.791 145.179,365.906 144.580 C 366.014 144.013,365.905 143.600,365.647 143.600 C 365.401 143.600,365.200 143.060,365.200 142.400 C 365.200 141.740,365.020 141.200,364.800 141.200 C 364.580 141.200,364.400 140.840,364.400 140.400 C 364.400 139.960,364.220 139.600,364.000 139.600 C 363.780 139.600,363.600 139.060,363.600 138.400 C 363.600 137.740,363.420 137.200,363.200 137.200 C 362.980 137.200,362.800 136.840,362.800 136.400 C 362.800 135.960,362.620 135.600,362.400 135.600 C 362.180 135.600,362.000 135.060,362.000 134.400 C 362.000 133.740,361.820 133.200,361.600 133.200 C 361.380 133.200,361.200 132.840,361.200 132.400 C 361.200 131.960,361.020 131.600,360.800 131.600 C 360.580 131.600,360.400 131.328,360.400 130.995 C 360.400 130.662,360.235 130.077,360.034 129.695 C 359.192 128.098,358.400 126.036,358.400 125.440 C 358.400 125.088,358.265 124.799,358.100 124.797 C 357.741 124.793,356.800 122.856,356.800 122.120 C 356.800 121.834,356.620 121.600,356.400 121.600 C 356.180 121.600,356.000 121.240,356.000 120.800 C 356.000 120.360,355.820 120.000,355.600 120.000 C 355.380 120.000,355.200 119.640,355.200 119.200 C 355.200 118.760,355.020 118.400,354.800 118.400 C 354.580 118.400,354.400 118.040,354.400 117.600 C 354.400 117.160,354.220 116.800,354.000 116.800 C 353.780 116.800,353.600 116.564,353.600 116.275 C 353.600 115.987,353.240 115.364,352.800 114.892 C 352.360 114.420,352.000 113.756,352.000 113.417 C 352.000 113.078,351.820 112.800,351.600 112.800 C 351.380 112.800,351.200 112.440,351.200 112.000 C 351.200 111.560,351.020 111.200,350.800 111.200 C 350.580 111.200,350.400 110.930,350.400 110.600 C 350.400 110.270,350.250 110.000,350.068 110.000 C 349.885 110.000,349.480 109.505,349.168 108.900 C 348.855 108.295,348.285 107.451,347.900 107.025 C 347.515 106.598,347.200 106.013,347.200 105.725 C 347.200 105.436,347.020 105.200,346.800 105.200 C 346.580 105.200,346.400 104.880,346.400 104.488 C 346.400 104.097,346.040 103.517,345.600 103.200 C 345.160 102.883,344.800 102.391,344.800 102.108 C 344.800 101.825,344.260 101.028,343.600 100.337 C 342.940 99.646,342.400 98.838,342.400 98.541 C 342.400 98.243,342.232 98.000,342.027 98.000 C 341.822 98.000,341.541 97.644,341.403 97.209 C 341.164 96.457,339.546 94.315,337.387 91.893 C 336.844 91.284,336.400 90.628,336.400 90.434 C 336.400 90.240,335.500 89.162,334.400 88.039 C 333.300 86.915,332.400 85.862,332.400 85.698 C 332.398 84.994,330.413 83.145,329.960 83.425 C 329.658 83.612,329.580 83.555,329.753 83.275 C 330.067 82.769,320.665 73.068,320.257 73.477 C 320.116 73.618,320.000 73.520,320.000 73.260 C 320.000 72.685,314.740 67.377,312.816 66.009 C 312.054 65.468,310.794 64.446,310.016 63.737 C 307.272 61.240,305.386 59.723,304.100 58.979 C 303.385 58.566,302.800 58.086,302.800 57.914 C 302.800 57.741,302.512 57.600,302.160 57.600 C 301.809 57.600,301.017 57.060,300.400 56.400 C 299.783 55.740,299.031 55.200,298.728 55.200 C 298.425 55.200,297.917 54.840,297.600 54.400 C 297.283 53.960,296.743 53.600,296.400 53.600 C 296.057 53.600,295.517 53.240,295.200 52.800 C 294.883 52.360,294.369 52.000,294.059 52.000 C 293.748 52.000,293.163 51.619,292.759 51.153 C 292.320 50.646,291.769 50.403,291.391 50.548 C 291.004 50.697,290.860 50.627,291.019 50.368 C 291.163 50.136,290.902 49.847,290.440 49.726 C 289.978 49.606,289.600 49.348,289.600 49.153 C 289.600 48.959,289.330 48.800,289.000 48.800 C 288.670 48.800,288.400 48.620,288.400 48.400 C 288.400 48.180,288.130 48.000,287.800 48.000 C 287.470 48.000,287.200 47.820,287.200 47.600 C 287.200 47.380,286.840 47.200,286.400 47.200 C 285.960 47.200,285.600 47.057,285.600 46.881 C 285.600 46.527,279.434 43.301,279.342 43.607 C 279.310 43.713,278.916 43.467,278.467 43.061 C 278.018 42.654,277.474 42.430,277.259 42.563 C 277.044 42.696,276.808 42.669,276.734 42.502 C 276.546 42.077,271.604 39.600,270.944 39.600 C 270.645 39.600,270.400 39.420,270.400 39.200 C 270.400 38.980,269.950 38.800,269.400 38.800 C 268.850 38.800,268.400 38.620,268.400 38.400 C 268.400 38.180,268.040 38.000,267.600 38.000 C 267.160 38.000,266.800 37.820,266.800 37.600 C 266.800 37.380,266.260 37.200,265.600 37.200 C 264.940 37.200,264.400 37.020,264.400 36.800 C 264.400 36.580,264.040 36.400,263.600 36.400 C 263.160 36.400,262.800 36.220,262.800 36.000 C 262.800 35.780,262.361 35.600,261.824 35.600 C 261.287 35.600,260.736 35.420,260.600 35.200 C 260.464 34.980,260.003 34.800,259.576 34.800 C 259.149 34.800,258.800 34.620,258.800 34.400 C 258.800 34.180,258.260 34.000,257.600 34.000 C 256.940 34.000,256.400 33.820,256.400 33.600 C 256.400 33.380,255.961 33.200,255.424 33.200 C 254.887 33.200,254.336 33.020,254.200 32.800 C 254.064 32.580,253.524 32.400,253.000 32.400 C 252.476 32.400,251.936 32.220,251.800 32.000 C 251.664 31.780,250.933 31.600,250.176 31.600 C 249.419 31.600,248.800 31.420,248.800 31.200 C 248.800 30.980,248.260 30.800,247.600 30.800 C 246.940 30.800,246.400 30.620,246.400 30.400 C 246.400 30.180,245.680 30.000,244.800 30.000 C 243.920 30.000,243.200 29.820,243.200 29.600 C 243.200 29.380,242.480 29.200,241.600 29.200 C 240.720 29.200,240.000 29.039,240.000 28.842 C 240.000 28.645,239.325 28.384,238.500 28.262 C 237.675 28.140,236.010 27.842,234.800 27.599 C 233.590 27.356,231.666 27.147,230.525 27.133 C 229.070 27.116,228.382 26.931,228.221 26.511 C 228.049 26.063,227.641 25.978,226.601 26.173 C 225.721 26.338,224.438 26.186,223.105 25.758 C 220.750 25.002,187.046 24.552,180.600 25.191 M243.262 318.446 L 242.872 319.800 242.836 318.020 C 242.811 316.762,242.925 316.365,243.226 316.666 C 243.515 316.955,243.527 317.523,243.262 318.446 " stroke="none" fill="#2404fc" fill-rule="evenodd"></path><path id="path1" d="M26.093 178.000 C 26.093 178.770,26.175 179.085,26.276 178.700 C 26.376 178.315,26.376 177.685,26.276 177.300 C 26.175 176.915,26.093 177.230,26.093 178.000 M242.534 312.400 C 242.534 314.050,242.605 314.725,242.691 313.900 C 242.778 313.075,242.778 311.725,242.691 310.900 C 242.605 310.075,242.534 310.750,242.534 312.400 M242.836 318.020 L 242.872 319.800 243.262 318.446 C 243.527 317.523,243.515 316.955,243.226 316.666 C 242.925 316.365,242.811 316.762,242.836 318.020 M242.565 348.600 L 242.578 367.800 242.807 351.800 C 242.933 343.000,243.184 335.395,243.365 334.900 C 243.575 334.324,243.540 334.000,243.267 334.000 C 243.031 334.000,242.775 332.972,242.696 331.700 C 242.616 330.435,242.557 338.040,242.565 348.600 " stroke="none" fill="#2804fc" fill-rule="evenodd"></path><path id="path2" d="M26.093 178.000 C 26.093 178.770,26.175 179.085,26.276 178.700 C 26.376 178.315,26.376 177.685,26.276 177.300 C 26.175 176.915,26.093 177.230,26.093 178.000 M242.534 312.400 C 242.534 314.050,242.605 314.725,242.691 313.900 C 242.778 313.075,242.778 311.725,242.691 310.900 C 242.605 310.075,242.534 310.750,242.534 312.400 M242.836 318.020 L 242.872 319.800 243.262 318.446 C 243.527 317.523,243.515 316.955,243.226 316.666 C 242.925 316.365,242.811 316.762,242.836 318.020 M242.565 348.600 L 242.578 367.800 242.807 351.800 C 242.933 343.000,243.184 335.395,243.365 334.900 C 243.575 334.324,243.540 334.000,243.267 334.000 C 243.031 334.000,242.775 332.972,242.696 331.700 C 242.616 330.435,242.557 338.040,242.565 348.600 " stroke="none" fill="#2804fc" fill-rule="evenodd"></path><path id="path3" d="M26.093 178.000 C 26.093 178.770,26.175 179.085,26.276 178.700 C 26.376 178.315,26.376 177.685,26.276 177.300 C 26.175 176.915,26.093 177.230,26.093 178.000 M242.534 312.400 C 242.534 314.050,242.605 314.725,242.691 313.900 C 242.778 313.075,242.778 311.725,242.691 310.900 C 242.605 310.075,242.534 310.750,242.534 312.400 M242.836 318.020 L 242.872 319.800 243.262 318.446 C 243.527 317.523,243.515 316.955,243.226 316.666 C 242.925 316.365,242.811 316.762,242.836 318.020 M242.565 348.600 L 242.578 367.800 242.807 351.800 C 242.933 343.000,243.184 335.395,243.365 334.900 C 243.575 334.324,243.540 334.000,243.267 334.000 C 243.031 334.000,242.775 332.972,242.696 331.700 C 242.616 330.435,242.557 338.040,242.565 348.600 " stroke="none" fill="#2804fc" fill-rule="evenodd"></path><path id="path4" d="M26.093 178.000 C 26.093 178.770,26.175 179.085,26.276 178.700 C 26.376 178.315,26.376 177.685,26.276 177.300 C 26.175 176.915,26.093 177.230,26.093 178.000 M242.534 312.400 C 242.534 314.050,242.605 314.725,242.691 313.900 C 242.778 313.075,242.778 311.725,242.691 310.900 C 242.605 310.075,242.534 310.750,242.534 312.400 M242.836 318.020 L 242.872 319.800 243.262 318.446 C 243.527 317.523,243.515 316.955,243.226 316.666 C 242.925 316.365,242.811 316.762,242.836 318.020 M242.565 348.600 L 242.578 367.800 242.807 351.800 C 242.933 343.000,243.184 335.395,243.365 334.900 C 243.575 334.324,243.540 334.000,243.267 334.000 C 243.031 334.000,242.775 332.972,242.696 331.700 C 242.616 330.435,242.557 338.040,242.565 348.600 " stroke="none" fill="#2804fc" fill-rule="evenodd"></path></g></svg>