<svg width="28" height="28" viewBox="0 0 28 28" fill="none" xmlns="http://www.w3.org/2000/svg">
<path d="M14.0046 3.36015C14.3505 3.36111 14.6956 3.37867 15.0399 3.41281C15.3841 3.44695 15.7259 3.49749 16.0654 3.56462C16.4047 3.63175 16.74 3.71509 17.0714 3.81462C17.4028 3.91416 17.7284 4.02932 18.0486 4.1603C18.3688 4.29109 18.6821 4.43731 18.9882 4.59838C19.2944 4.75945 19.592 4.93499 19.8812 5.125C20.1703 5.31482 20.4496 5.51813 20.7191 5.73495C20.9888 5.95197 21.2471 6.18114 21.4946 6.42303H17.0675V9.48573H24.7251C24.7753 9.48573 24.8254 9.48322 24.8754 9.4784C24.9251 9.47338 24.9747 9.46605 25.0239 9.45641C25.0731 9.44657 25.1217 9.43441 25.1697 9.41975C25.2178 9.40529 25.2648 9.38831 25.3113 9.36921C25.3576 9.34992 25.403 9.32851 25.4471 9.30498C25.4913 9.28125 25.5343 9.2556 25.576 9.22762C25.6179 9.19985 25.658 9.16995 25.6968 9.13812C25.7355 9.10629 25.7728 9.07273 25.8081 9.03723C25.8436 9.00174 25.8773 8.9647 25.9091 8.92593C25.941 8.88715 25.9707 8.84684 25.9986 8.80517C26.0264 8.7635 26.0523 8.72049 26.0758 8.67631C26.0995 8.63195 26.1209 8.58681 26.14 8.54032C26.1593 8.49402 26.1761 8.44695 26.1908 8.39892C26.2052 8.35089 26.2176 8.30228 26.2272 8.25309C26.2371 8.2039 26.2444 8.15432 26.2494 8.10455C26.2542 8.05459 26.2567 8.00444 26.2567 7.95428V0.297455H23.1937V3.85031C23.071 3.73939 22.9466 3.63079 22.82 3.52431C22.6935 3.41783 22.565 3.31385 22.4346 3.212C22.3044 3.11034 22.1723 3.0108 22.0384 2.91397C21.9045 2.81694 21.7689 2.72222 21.6317 2.63021C21.4944 2.538 21.3555 2.4485 21.2149 2.36131C21.0745 2.27431 20.9323 2.18962 20.7888 2.10764C20.6452 2.02566 20.5002 1.94637 20.3538 1.8696C20.2074 1.79283 20.0596 1.71875 19.9105 1.64738C19.7614 1.576 19.6109 1.50714 19.4595 1.44117C19.3079 1.37519 19.1551 1.31192 19.0012 1.25154C18.8474 1.19097 18.6923 1.1333 18.5365 1.07832C18.3806 1.02354 18.2236 0.971452 18.0658 0.922262C17.908 0.872879 17.7492 0.826583 17.5897 0.782987C17.4304 0.739584 17.2701 0.698882 17.109 0.661074C16.9481 0.623458 16.7865 0.588543 16.6242 0.556714C16.462 0.524692 16.2992 0.495757 16.136 0.469716C15.9728 0.443674 15.809 0.420719 15.6449 0.400464C15.4809 0.380402 15.3164 0.363234 15.1516 0.348959C14.9869 0.334685 14.8219 0.323497 14.6568 0.315202C14.4917 0.3071 14.3266 0.301699 14.1613 0.299384C13.9959 0.297262 13.8306 0.297841 13.6653 0.301506C13.5 0.305171 13.3349 0.311922 13.1697 0.321375C13.0046 0.33102 12.8399 0.343751 12.6753 0.359183C12.5106 0.374808 12.3464 0.393327 12.1825 0.414932C12.0185 0.436344 11.8551 0.460842 11.6919 0.488234C11.5289 0.515626 11.3665 0.545912 11.2045 0.579091C11.0426 0.612463 10.8812 0.648535 10.7205 0.687694C10.56 0.72666 10.4001 0.768713 10.2409 0.813466C10.0818 0.858412 9.92341 0.906058 9.766 0.956598C9.6086 1.00714 9.45215 1.06057 9.29667 1.11671C9.1412 1.17303 8.98668 1.23187 8.83333 1.29379C8.67997 1.35552 8.52777 1.41995 8.37673 1.48727C8.22569 1.5544 8.076 1.62442 7.92746 1.69715C7.77893 1.76968 7.63174 1.8451 7.48591 1.92303C7.34027 2.00097 7.19579 2.0816 7.05304 2.16474C6.9101 2.24788 6.7687 2.33372 6.62904 2.42188C6.48919 2.51022 6.35107 2.60089 6.2145 2.69425C6.07792 2.78742 5.94309 2.8831 5.81018 2.98129C5.67708 3.07928 5.54571 3.17979 5.41627 3.28279C5.28684 3.38561 5.15933 3.49074 5.03375 3.59819C4.90798 3.70563 4.78433 3.81539 4.66261 3.92728C4.54089 4.03916 4.42129 4.15316 4.30381 4.26948C4.18614 4.38561 4.07079 4.50405 3.95736 4.62442C3.84413 4.74479 3.73302 4.86709 3.62403 4.99151C3.51523 5.11594 3.40856 5.24229 3.3042 5.37056C3.19984 5.49884 3.09799 5.62886 2.99826 5.7608C2.89872 5.89275 2.8015 6.02643 2.70659 6.16185C2.61168 6.29726 2.51947 6.43441 2.42958 6.57311C2.33969 6.71181 2.25231 6.85224 2.16762 6.99421C2.08275 7.136 2.00057 7.27952 1.9209 7.42438C1.84123 7.56925 1.76427 7.71547 1.68981 7.86304C1.61554 8.0108 1.54378 8.15972 1.47491 8.30999C1.40586 8.46026 1.33969 8.61169 1.27603 8.76428C1.21257 8.91686 1.15181 9.0706 1.09374 9.2255C1.03587 9.38021 0.980702 9.53607 0.928425 9.6929C0.875956 9.84973 0.826381 10.0075 0.779892 10.1661C0.733209 10.3247 0.689421 10.484 0.648526 10.6443C0.607438 10.8044 0.569436 10.9653 0.534328 11.1267C0.49922 11.2884 0.467006 11.4504 0.437878 11.6132C0.408557 11.7759 0.382322 11.939 0.358788 12.1028C0.335447 12.2664 0.314999 12.4304 0.297638 12.5949C0.280084 12.7593 0.265617 12.924 0.254236 13.0887C0.242662 13.2537 0.234174 13.4188 0.22858 13.5841C0.222986 13.7492 0.220478 13.9145 0.220864 14.0799H3.28394C3.28414 13.9045 3.28857 13.7292 3.29745 13.554C3.30613 13.3789 3.31924 13.2041 3.3366 13.0295C3.35397 12.8549 3.37557 12.6811 3.40161 12.5075C3.42746 12.3341 3.45755 12.1615 3.49189 11.9894C3.52623 11.8175 3.56481 11.6464 3.60763 11.4763C3.65026 11.3063 3.69733 11.1373 3.74826 10.9695C3.79937 10.8017 3.85435 10.6352 3.91357 10.4701C3.97279 10.3052 4.03606 10.1416 4.10319 9.97955C4.17052 9.81752 4.2417 9.65741 4.31674 9.49884C4.39177 9.34028 4.47067 9.18384 4.55343 9.02913C4.63618 8.87442 4.7226 8.72203 4.81288 8.57157C4.90316 8.4211 4.99691 8.27315 5.09451 8.12732C5.19193 7.98148 5.29301 7.83816 5.39737 7.69734C5.50192 7.55652 5.60995 7.41821 5.72106 7.28279C5.83236 7.14718 5.94694 7.01447 6.06481 6.88445C6.18248 6.75463 6.30343 6.62751 6.42746 6.50367C6.5515 6.37963 6.67843 6.25868 6.80844 6.14082C6.93846 6.02315 7.07117 5.90857 7.20678 5.79726C7.34239 5.68596 7.48051 5.57813 7.62133 5.47357C7.76215 5.36902 7.90566 5.26813 8.0513 5.17072C8.19714 5.07311 8.34529 4.97936 8.49575 4.88908C8.64621 4.79881 8.7986 4.71239 8.95331 4.62963C9.10802 4.54688 9.26446 4.46798 9.42303 4.39294C9.58159 4.3179 9.74189 4.24672 9.90393 4.17959C10.0658 4.11227 10.2294 4.04919 10.3945 3.98997C10.5596 3.93075 10.7261 3.87558 10.8939 3.82465C11.0617 3.77354 11.2307 3.72666 11.4006 3.68384C11.5708 3.6412 11.7419 3.60262 11.914 3.56829C12.0858 3.53395 12.2587 3.50386 12.4321 3.47782C12.6055 3.45197 12.7795 3.43036 12.9541 3.413C13.1287 3.39564 13.3034 3.38252 13.4786 3.37365C13.6539 3.36497 13.8291 3.36053 14.0046 3.36015Z" fill="#FF1616"/>
<path d="M24.7251 14.0799C24.7255 14.3418 24.716 14.6036 24.6971 14.8648C24.678 15.1262 24.6495 15.3864 24.6115 15.6456C24.5733 15.9047 24.5258 16.1622 24.4689 16.418C24.4118 16.6736 24.3457 16.9269 24.2701 17.1779C24.1944 17.4286 24.1098 17.6763 24.016 17.9211C23.9223 18.1657 23.8198 18.4066 23.7083 18.6437C23.5968 18.8808 23.4768 19.1134 23.3484 19.3418C23.2199 19.5702 23.0831 19.7934 22.9383 20.0118C22.7934 20.2299 22.6408 20.4427 22.4803 20.6497C22.3198 20.8569 22.1518 21.0577 21.9767 21.2525C21.8013 21.4473 21.6192 21.6354 21.4302 21.8167C21.2411 21.9981 21.0457 22.1725 20.8439 22.3395C20.642 22.5066 20.4344 22.6659 20.2209 22.8177C20.0073 22.9695 19.7884 23.1134 19.5644 23.249C19.3403 23.3848 19.1115 23.5122 18.8781 23.6312C18.6447 23.7502 18.4072 23.8605 18.1657 23.962C17.9242 24.0637 17.6792 24.1561 17.4309 24.2398C17.1825 24.3233 16.9315 24.3976 16.6777 24.4628C16.424 24.528 16.1682 24.5837 15.9103 24.6302C15.6524 24.6765 15.3931 24.7133 15.1325 24.7407C14.8721 24.7681 14.6107 24.7859 14.349 24.7942C14.087 24.8023 13.8252 24.8009 13.5635 24.7899C13.3017 24.7789 13.0407 24.7583 12.7803 24.7282C12.5201 24.6979 12.2612 24.6584 12.0038 24.6092C11.7465 24.56 11.4913 24.5015 11.2382 24.4336C10.9851 24.3657 10.7349 24.2888 10.4875 24.2025C10.2402 24.1163 9.99613 24.021 9.75578 23.9169C9.51542 23.8127 9.27912 23.7 9.04687 23.5785C8.81481 23.457 8.58738 23.3272 8.36477 23.189C8.14216 23.0509 7.92495 22.9047 7.71295 22.7506C7.50115 22.5966 7.29513 22.435 7.09509 22.2656C6.89505 22.0965 6.70157 21.9201 6.51446 21.7367H10.9415V18.674H3.28394C3.23379 18.674 3.18363 18.6765 3.13367 18.6813C3.0839 18.6863 3.03433 18.6937 2.98514 18.7035C2.93595 18.7132 2.88734 18.7253 2.8393 18.74C2.79127 18.7544 2.7442 18.7714 2.69772 18.7905C2.65142 18.8098 2.60609 18.8312 2.56191 18.8547C2.51774 18.8785 2.47472 18.9041 2.43305 18.9321C2.39139 18.9599 2.35107 18.9898 2.3123 19.0216C2.27353 19.0534 2.23649 19.087 2.20099 19.1225C2.1655 19.158 2.13174 19.195 2.09991 19.2338C2.06809 19.2726 2.03838 19.3129 2.01041 19.3546C1.98263 19.3962 1.95678 19.4392 1.93325 19.4834C1.90952 19.5278 1.88811 19.5729 1.86901 19.6194C1.84972 19.6657 1.83294 19.7128 1.81828 19.7608C1.80381 19.8088 1.79166 19.8574 1.78182 19.9066C1.77198 19.9558 1.76465 20.0054 1.75964 20.0554C1.75481 20.1051 1.75231 20.1553 1.75231 20.2054V27.8623H4.81538V24.3094C4.93807 24.4203 5.06268 24.5289 5.18923 24.6354C5.31558 24.7419 5.44405 24.8459 5.57445 24.9477C5.70466 25.0494 5.8368 25.1489 5.97067 25.2459C6.10454 25.3428 6.24015 25.4375 6.37731 25.5295C6.51465 25.6217 6.65354 25.7112 6.79417 25.7984C6.9346 25.8854 7.07677 25.9701 7.22028 26.0521C7.3638 26.1341 7.50887 26.2134 7.65528 26.2901C7.80169 26.3669 7.94945 26.441 8.09856 26.5123C8.24768 26.5837 8.39814 26.6526 8.54976 26.7186C8.70119 26.7845 8.85397 26.8478 9.0079 26.9082C9.16164 26.9688 9.31674 27.0264 9.4726 27.0814C9.62846 27.1362 9.78549 27.1883 9.94328 27.2377C10.1011 27.2868 10.2598 27.3331 10.4194 27.3767C10.5789 27.4201 10.739 27.4608 10.9001 27.4986C11.0609 27.5363 11.2226 27.5712 11.3848 27.603C11.5471 27.635 11.7099 27.664 11.8731 27.69C12.0363 27.716 12.2 27.7392 12.3642 27.7593C12.5282 27.7793 12.6927 27.7965 12.8574 27.8108C13.0222 27.825 13.1871 27.8362 13.3522 27.8445C13.5174 27.8526 13.6825 27.858 13.8478 27.8603C14.0131 27.8627 14.1784 27.8619 14.3437 27.8582C14.5091 27.8546 14.6742 27.8478 14.8393 27.8384C15.0044 27.8287 15.1692 27.816 15.3337 27.8005C15.4984 27.7849 15.6626 27.7664 15.8266 27.7448C15.9905 27.7234 16.1539 27.6989 16.3171 27.6715C16.4801 27.6441 16.6425 27.6138 16.8046 27.5806C16.9666 27.5473 17.1279 27.5112 17.2886 27.472C17.4491 27.4331 17.609 27.391 17.7681 27.3463C17.9273 27.3013 18.0856 27.2537 18.243 27.2031C18.4005 27.1526 18.5569 27.0992 18.7124 27.043C18.8679 26.9867 19.0224 26.9279 19.1757 26.8661C19.3291 26.8042 19.4813 26.7398 19.6323 26.6725C19.7834 26.6053 19.9331 26.5353 20.0816 26.4626C20.2301 26.39 20.3773 26.3146 20.5231 26.2367C20.6688 26.1588 20.8133 26.0781 20.956 25.995C21.099 25.9118 21.2403 25.8262 21.3802 25.7378C21.5199 25.6495 21.658 25.5588 21.7946 25.4655C21.9311 25.3723 22.066 25.2766 22.1991 25.1784C22.332 25.0804 22.4633 24.9799 22.5928 24.8771C22.7222 24.7741 22.8497 24.669 22.9753 24.5615C23.1011 24.4541 23.2247 24.3445 23.3464 24.2324C23.4682 24.1206 23.5878 24.0066 23.7052 23.8902C23.8229 23.7741 23.9383 23.6559 24.0517 23.5353C24.1649 23.4149 24.276 23.2926 24.385 23.1682C24.4938 23.0438 24.6005 22.9174 24.7049 22.7892C24.8092 22.6609 24.9111 22.5309 25.0108 22.3989C25.1103 22.267 25.2076 22.1333 25.3025 21.9979C25.3974 21.8625 25.4896 21.7253 25.5795 21.5866C25.6694 21.4479 25.7567 21.3075 25.8416 21.1657C25.9263 21.0237 26.0085 20.8804 26.0881 20.7353C26.1678 20.5905 26.2448 20.4443 26.3192 20.2967C26.3935 20.1489 26.4653 20 26.5341 19.8497C26.6032 19.6995 26.6696 19.548 26.733 19.3954C26.7965 19.2429 26.8572 19.0891 26.9153 18.9342C26.9732 18.7795 27.0283 18.6237 27.0808 18.4668C27.1331 18.31 27.1827 18.1522 27.2294 17.9936C27.2758 17.8351 27.3196 17.6757 27.3607 17.5154C27.4016 17.3553 27.4396 17.1944 27.4747 17.033C27.5098 16.8713 27.542 16.7093 27.5712 16.5465C27.6005 16.3839 27.6267 16.2207 27.6503 16.0569C27.6736 15.8933 27.6941 15.7294 27.7114 15.5648C27.729 15.4005 27.7434 15.2359 27.7548 15.071C27.7664 14.9061 27.7749 14.7409 27.7805 14.5756C27.7861 14.4105 27.7886 14.2452 27.7882 14.0799H24.7251Z" fill="#FF1616"/>
</svg>
